<?xml version="1.0" encoding="UTF-8"?><svg id="Layer_1" xmlns="http://www.w3.org/2000/svg" xmlns:xlink="http://www.w3.org/1999/xlink" viewBox="0 0 923.39 180"><defs><style>.cls-1{fill:#fff;}.cls-2{fill:#9233ff;}.cls-3{fill:url(#linear-gradient);}</style><linearGradient id="linear-gradient" x1="14.42" y1="12.12" x2="165.58" y2="167.88" gradientTransform="matrix(1, 0, 0, 1, 0, 0)" gradientUnits="userSpaceOnUse"><stop offset="0" stop-color="#9233ff"/><stop offset="1" stop-color="#643f99"/></linearGradient></defs><g><path class="cls-1" d="M287.35,68.88h-16.92c-.96-8.4-5.64-13.68-14.28-13.68-6.6,0-11.64,3.12-11.64,9.84s4.44,10.44,17.64,13.56c18.24,4.2,26.4,12.6,26.4,25.92,0,15.6-14.28,24.48-30.6,24.48-19.8,0-32.76-8.76-34.32-26.16h16.92c1.8,9.12,8.76,13.8,17.16,13.8,7.56,0,13.56-4.08,13.56-10.44,0-6.96-4.32-11.04-16.56-13.92-16.92-4.08-27.6-9.96-27.6-25.2s13.8-24.24,29.64-24.24c19.8,0,28.8,11.28,30.6,26.04Z"/><path class="cls-1" d="M318.91,104.4c0,2.16,0,3.96,.12,5.64,.48,6.24,2.76,7.68,12,6.96v10.8c-3.72,.6-7.2,.84-10.92,.84-12.36,0-16.8-4.08-17.52-13.08-.24-2.88-.24-5.64-.24-9.24v-31.44h-9.36v-10.92h9.36v-15.72h16.56v15.72h13.2v10.92h-13.2v29.52Z"/><path class="cls-1" d="M401.35,127.32h-16.56v-10.8l-4.92,8.16c-4.68,3.12-9.24,4.32-15.36,4.32-13.2,0-21.12-7.44-22.56-16.2-.48-3.24-.6-6.48-.6-11.64V63.48h16.56v34.2c0,2.04,.12,5.52,.48,8.76,.84,6.6,4.68,10.8,12.36,10.8,8.28,0,14.04-6.84,14.04-21.24V63.48h16.56v63.84Z"/><path class="cls-1" d="M478.63,127.32h-16.56v-9.84l-4.8,7.08c-3.6,2.76-10.08,4.44-16.56,4.44-17.88,0-28.44-13.56-28.44-32.4,0-23.16,14.16-34.8,30.6-34.8,5.28,0,11.76,1.32,15,3.6l4.2,6.6V39.12h16.56V127.32Zm-16.56-31.2v-3.12c0-14.4-8.28-19.56-15.96-19.56-9.6,0-16.68,7.32-16.68,22.08,0,13.08,6.24,21.84,16.08,21.84,9.12,0,16.56-5.64,16.56-21.24Z"/><path class="cls-1" d="M528.79,129.72c-6.72,17.28-13.68,22.8-26.64,22.8-3,0-5.04-.12-7.44-.48v-11.4c1.68,.24,3.24,.24,4.92,.24,5.64,0,9.36-2.16,12-8.52l.84-2.04-26.04-66.84h18.48l15.84,51.24,15.6-51.24h18.12l-25.68,66.24Z"/><path class="cls-1" d="M638.22,127.32l-34.08-62.88c.48,9,.6,18.48,.6,25.44v37.44h-16.56V44.52h21.96l34.8,64.08c-.48-8.88-.6-18.96-.6-26.04V44.52h16.44l.12,82.8h-22.68Z"/><path class="cls-1" d="M738.18,95.4c0,19.32-11.88,33.6-33.12,33.6s-33.12-14.28-33.12-33.6,11.88-33.6,33.12-33.6,33.12,14.16,33.12,33.6Zm-17.16,0c0-13.8-6-21.96-15.96-21.96s-15.96,8.16-15.96,21.96,6,21.96,15.96,21.96,15.96-8.28,15.96-21.96Z"/><path class="cls-1" d="M811.02,127.32h-16.56v-9.84l-4.8,7.08c-3.6,2.76-10.08,4.44-16.56,4.44-17.88,0-28.44-13.56-28.44-32.4,0-23.16,14.16-34.8,30.6-34.8,5.28,0,11.76,1.32,15,3.6l4.2,6.6V39.12h16.56V127.32Zm-16.56-31.2v-3.12c0-14.4-8.28-19.56-15.96-19.56-9.6,0-16.68,7.32-16.68,22.08,0,13.08,6.24,21.84,16.08,21.84,9.12,0,16.56-5.64,16.56-21.24Z"/><path class="cls-1" d="M884.1,99.72h-45.36c1.08,13.44,7.08,17.64,14.76,17.64,7.08,0,12.24-3.96,13.32-10.8h16.56c-3.24,14.88-15.24,22.44-30.24,22.44-17.52,0-31.08-10.92-31.08-33.36,0-19.56,12.84-33.84,32.4-33.84s29.88,14.88,29.88,32.28c0,1.56,0,3.48-.24,5.64Zm-44.88-10.8h28.08c-1.08-10.08-5.64-15.48-13.56-15.48s-13.08,4.92-14.52,15.48Z"/></g><g><g><g><rect class="cls-3" x="5.5" y="5.5" width="169.01" height="169.01" rx="26.48" ry="26.48"/><path class="cls-3" d="M150.65,105.09h0l-12.09-12.09c-1.61-1.61-4.17-1.61-5.64,0l-42.06,42.06c-.13,.13-.27,.27-.27,.4-.67,.54-1.21,1.34-1.48,2.15l-4.43,16.53c-.54,2.15,.67,4.3,2.82,4.97,.67,.13,1.48,.13,2.28,0l16.12-4.97c1.08,0,2.15-.4,2.82-1.21l42.06-42.06c1.48-1.61,1.48-4.17-.13-5.78Zm-59.53,47.28l2.84-10.31,7.11,7.11-9.95,3.2Zm14.65-8.04l-6.45-6.45,24.32-24.32,6.45,6.45-24.32,24.32Zm29.96-29.96l-6.32-6.45,6.32-6.32,6.45,6.45-6.45,6.32Z"/></g><g><rect class="cls-2" x="5.5" y="5.5" width="169.01" height="169.01" rx="26.48" ry="26.48"/><path class="cls-1" d="M150.65,105.09h0l-12.09-12.09c-1.61-1.61-4.17-1.61-5.64,0l-42.06,42.06c-.13,.13-.27,.27-.27,.4-.67,.54-1.21,1.34-1.48,2.15l-4.43,16.53c-.54,2.15,.67,4.3,2.82,4.97,.67,.13,1.48,.13,2.28,0l16.12-4.97c1.08,0,2.15-.4,2.82-1.21l42.06-42.06c1.48-1.61,1.48-4.17-.13-5.78Zm-59.53,47.28l2.84-10.31,7.11,7.11-9.95,3.2Zm14.65-8.04l-6.45-6.45,24.32-24.32,6.45,6.45-24.32,24.32Zm29.96-29.96l-6.32-6.45,6.32-6.32,6.45,6.45-6.45,6.32Z"/></g></g><path class="cls-1" d="M56.12,88.75h25.67v6.38c0,2.78,2.13,4.91,4.91,4.91h22.56c2.78,0,4.91-2.13,4.91-4.91v-22.56c0-2.78-2.13-4.91-4.91-4.91h-22.56c-2.78,0-4.91,2.13-4.91,4.91v6.38h-25.67v-24.36h6.38c2.78,0,4.91-2.13,4.91-4.91V27.11c0-2.78-2.13-4.91-4.91-4.91h-22.56c-2.78,0-4.91,2.13-4.91,4.91v22.56c0,2.78,2.13,4.91,4.91,4.91h6.38v84.37c0,2.78,2.13,4.91,4.91,4.91h26.32v-9.81h-21.42v-45.29Zm35.48-11.28h12.75v12.75h-12.75v-12.75ZM44.84,32.01h12.75v12.75h-12.75v-12.75Z"/></g></svg>