<?xml version="1.0" encoding="UTF-8"?><svg id="Layer_1" xmlns="http://www.w3.org/2000/svg" xmlns:xlink="http://www.w3.org/1999/xlink" viewBox="0 0 178.85 178.85"><defs><style>.cls-1{fill:url(#linear-gradient-2);}.cls-2{fill:#fff;}.cls-3{fill:url(#linear-gradient);}</style><linearGradient id="linear-gradient" x1="9" y1="6.55" x2="169.86" y2="172.31" gradientTransform="matrix(1, 0, 0, 1, 0, 0)" gradientUnits="userSpaceOnUse"><stop offset="0" stop-color="#7c40d3"/><stop offset="1" stop-color="#643f99"/></linearGradient><linearGradient id="linear-gradient-2" x1="24.43" y1="22.45" x2="232.7" y2="237.06" gradientTransform="matrix(1, 0, 0, 1, 0, 0)" gradientUnits="userSpaceOnUse"><stop offset="0" stop-color="#9233ff"/><stop offset="1" stop-color="#9233ff"/></linearGradient></defs><g><g><rect class="cls-3" width="178.85" height="178.85" rx="26.48" ry="26.48"/><path class="cls-3" d="M153.61,105.39h0l-12.8-12.8c-1.71-1.71-4.41-1.71-5.97,0l-44.51,44.51c-.14,.14-.28,.28-.28,.43-.71,.57-1.28,1.42-1.56,2.28l-4.69,17.49c-.57,2.28,.71,4.55,2.99,5.26,.71,.14,1.56,.14,2.42,0l17.06-5.26c1.14,0,2.28-.43,2.99-1.28l44.51-44.51c1.56-1.71,1.56-4.41-.14-6.11Zm-63,50.03l3.01-10.91,7.52,7.52-10.53,3.38Zm15.5-8.51l-6.83-6.83,25.74-25.74,6.83,6.83-25.74,25.74Zm31.71-31.71l-6.68-6.83,6.68-6.68,6.83,6.83-6.83,6.68Z"/></g><g><rect class="cls-1" width="178.85" height="178.85" rx="26.48" ry="26.48"/><path class="cls-2" d="M153.61,105.39h0l-12.8-12.8c-1.71-1.71-4.41-1.71-5.97,0l-44.51,44.51c-.14,.14-.28,.28-.28,.43-.71,.57-1.28,1.42-1.56,2.28l-4.69,17.49c-.57,2.28,.71,4.55,2.99,5.26,.71,.14,1.56,.14,2.42,0l17.06-5.26c1.14,0,2.28-.43,2.99-1.28l44.51-44.51c1.56-1.71,1.56-4.41-.14-6.11Zm-63,50.03l3.01-10.91,7.52,7.52-10.53,3.38Zm15.5-8.51l-6.83-6.83,25.74-25.74,6.83,6.83-25.74,25.74Zm31.71-31.71l-6.68-6.83,6.68-6.68,6.83,6.83-6.83,6.68Z"/></g></g><path class="cls-2" d="M53.57,88.1h27.17v6.75c0,2.94,2.25,5.19,5.19,5.19h23.88c2.94,0,5.19-2.25,5.19-5.19v-23.88c0-2.94-2.25-5.19-5.19-5.19h-23.88c-2.94,0-5.19,2.25-5.19,5.19v6.75h-27.16v-25.78h6.75c2.94,0,5.19-2.25,5.19-5.19V22.87c0-2.94-2.25-5.19-5.19-5.19h-23.88c-2.94,0-5.19,2.25-5.19,5.19v23.88c0,2.94,2.25,5.19,5.19,5.19h6.75v89.28c0,2.94,2.25,5.19,5.19,5.19h27.86v-10.38h-22.67v-47.93Zm37.55-11.94h13.5v13.5h-13.5v-13.5ZM41.63,28.06h13.5v13.5h-13.5v-13.5Z"/></svg>