<?xml version="1.0" encoding="utf-8"?>
<!-- Generator: Adobe Illustrator 26.3.1, SVG Export Plug-In . SVG Version: 6.00 Build 0)  -->
<svg version="1.1" id="Layer_1" xmlns="http://www.w3.org/2000/svg" xmlns:xlink="http://www.w3.org/1999/xlink" x="0px" y="0px"
	 viewBox="0 0 234.5 240.4" style="enable-background:new 0 0 234.5 240.4;" xml:space="preserve">
<style type="text/css">
	.st0{opacity:0.87;}
	.st1{fill:#C03240;enable-background:new    ;}
	.st2{fill:#F4F4F4;enable-background:new    ;}
	.st3{opacity:0.9;fill:#1B1A1C;enable-background:new    ;}
	.st4{fill:#C03240;}
	.st5{fill:#1B1A1C;}
	.st6{opacity:0.4;fill:#1B1A1C;enable-background:new    ;}
	.st7{display:none;}
	.st8{display:inline;}
	.st9{fill:#0B4870;}
	.st10{display:inline;opacity:0.24;}
	.st11{fill:#0E538C;}
	.st12{display:inline;fill:#F7F7F7;}
	.st13{display:inline;fill:#C03240;}
	.st14{display:inline;fill:#0B4870;}
</style>
<g id="Background" class="st0">
	<g>
		<path class="st1" d="M149.4,229.7c-10.1-0.2-18.7-0.5-25.4-0.8c-50.3-2.6-70.2-4.3-92.9-12.3c0,0,0,0,0,0
			c-0.1-0.2-25.3-12.7-29.8-65.5c-2.6-30.7,3-56,5.1-64.7c4.1-16.8,9.5-38.2,23.9-56.1C46.6,10.5,66.1,6.8,103.1,3.6
			c23-2,47.8,0.2,73.9,8.7c8.6,2.8,16.9,6,24.6,12c11.3,8.7,15,19.5,19.1,28.2c3.3,7.3,9.9,26.2,9.8,76.2
			c-0.1,17.1-0.9,24.5-1.6,29.3c-3.1,20.7-5.3,34.3-18.1,47.9c-11.1,11.8-24.8,17.6-30,19.5C166.9,230.5,155.3,230.3,149.4,229.7z"
			/>
	</g>
</g>
<g id="BACKGROUND">
</g>
<g id="OBJECTS">
</g>
<g id="DESIGNED_BY_FREEPIK">
	<g>
		<path class="st2" d="M184.9,35.9v161.6c0,3.4-2.9,6.2-6.5,6.2H54c-3.6,0-6.5-2.8-6.5-6.2V35.9c0-3.4,2.9-6.2,6.5-6.2h124.3
			C182,29.6,184.9,32.4,184.9,35.9z"/>
		<g>
			<path class="st3" d="M89.7,57h59.4h20.1c0.7,0,1.2-0.5,1.2-1.1v-1.4c0-0.6-0.5-1.1-1.2-1.1h-20.1H89.7c-0.7,0-1.2,0.5-1.2,1.1
				v1.4C88.5,56.5,89,57,89.7,57z"/>
			<path class="st3" d="M169.2,60.3h-29H89.7c-0.7,0-1.2,0.5-1.2,1.1v1.4c0,0.6,0.5,1.1,1.2,1.1h50.5h29c0.7,0,1.2-0.5,1.2-1.1v-1.4
				C170.4,60.8,169.8,60.3,169.2,60.3z"/>
			<g>
				<path class="st3" d="M169.2,67.5h-11.7H89.7c-0.7,0-1.2,0.5-1.2,1.1v1.4c0,0.6,0.5,1.1,1.2,1.1h67.7h11.7c0.7,0,1.2-0.5,1.2-1.1
					v-1.4C170.4,68.1,169.8,67.5,169.2,67.5z"/>
				<g>
					<path class="st3" d="M89.7,95.2h59.4h20.1c0.7,0,1.2-0.5,1.2-1.1v-1.4c0-0.6-0.5-1.1-1.2-1.1h-20.1H89.7
						c-0.7,0-1.2,0.5-1.2,1.1V94C88.5,94.7,89,95.2,89.7,95.2z"/>
					<path class="st3" d="M169.2,98.5h-29H89.7c-0.7,0-1.2,0.5-1.2,1.1v1.4c0,0.6,0.5,1.1,1.2,1.1h50.5h29c0.7,0,1.2-0.5,1.2-1.1
						v-1.4C170.4,99,169.8,98.5,169.2,98.5z"/>
					<path class="st3" d="M169.2,105.7h-11.7H89.7c-0.7,0-1.2,0.5-1.2,1.1v1.4c0,0.6,0.5,1.1,1.2,1.1h67.7h11.7
						c0.7,0,1.2-0.5,1.2-1.1v-1.4C170.4,106.2,169.8,105.7,169.2,105.7z"/>
				</g>
				<g>
					<path class="st4" d="M72.6,56.2c3.9,0.8,6.4,4.4,5.6,8.1c-0.8,3.7-4.6,6.1-8.5,5.3c-3.9-0.8-6.4-4.4-5.6-8.1
						C64.9,57.8,68.7,55.4,72.6,56.2 M72.9,54.5c-4.9-1-9.7,2-10.7,6.7c-1,4.7,2.1,9.2,7,10.2c4.9,1,9.7-2,10.7-6.7
						C80.9,60,77.8,55.4,72.9,54.5L72.9,54.5z"/>
					<path class="st5" d="M66.2,61.6l3,5.5c0.3,0.6,1.1,0.6,1.5,0c1.6-2.7,5.6-9.2,11-13.5c0.3-0.3,0-0.8-0.4-0.5
						c-4.5,2.9-8.6,7-11.5,11.8l-3.2-3.6C66.4,61.2,66.1,61.4,66.2,61.6z"/>
				</g>
				<g>
					<path class="st4" d="M72.6,94.3c3.9,0.8,6.4,4.4,5.6,8.1c-0.8,3.7-4.6,6.1-8.5,5.3c-3.9-0.8-6.4-4.4-5.6-8.1
						C64.9,95.9,68.7,93.5,72.6,94.3 M72.9,92.6c-4.9-1-9.7,2-10.7,6.7c-1,4.7,2.1,9.2,7,10.2c4.9,1,9.7-2,10.7-6.7
						C80.9,98.1,77.8,93.6,72.9,92.6L72.9,92.6z"/>
					<path class="st5" d="M66.2,99.8l3,5.5c0.3,0.6,1.1,0.6,1.5,0c1.6-2.7,5.6-9.2,11-13.5c0.3-0.3,0-0.8-0.4-0.5
						c-4.5,2.9-8.6,7-11.5,11.9l-3.2-3.6C66.4,99.3,66.1,99.5,66.2,99.8z"/>
				</g>
				<g>
					<g>
						<g>
							<g>
								<path class="st5" d="M150.3,135.1v1.4c0,0.6-0.5,1.1-1.2,1.1H89.7c-0.7,0-1.2-0.5-1.2-1.1v-1.4c0-0.6,0.5-1.1,1.2-1.1h59.4
									C149.8,134,150.3,134.5,150.3,135.1z"/>
							</g>
							<g>
								<path class="st6" d="M170.4,135.1v1.4c0,0.6-0.5,1.1-1.2,1.1h-20.1c0.7,0,1.2-0.5,1.2-1.1v-1.4c0-0.6-0.5-1.1-1.2-1.1h20.1
									C169.8,134,170.4,134.5,170.4,135.1z"/>
							</g>
						</g>
						<g>
							<path class="st5" d="M141.4,142.3v1.4c0,0.6-0.5,1.1-1.2,1.1H89.7c-0.7,0-1.2-0.5-1.2-1.1v-1.4c0-0.6,0.5-1.1,1.2-1.1h50.5
								C140.9,141.2,141.4,141.7,141.4,142.3z"/>
							<path class="st6" d="M170.4,142.3v1.4c0,0.6-0.5,1.1-1.2,1.1h-29c0.7,0,1.2-0.5,1.2-1.1v-1.4c0-0.6-0.5-1.1-1.2-1.1h29
								C169.8,141.2,170.4,141.7,170.4,142.3z"/>
						</g>
						<g>
							<path class="st5" d="M158.6,128.3v1.4c0,0.6-0.5,1.1-1.2,1.1H89.7c-0.7,0-1.2-0.5-1.2-1.1v-1.4c0-0.6,0.5-1.1,1.2-1.1h67.7
								C158.1,127.1,158.6,127.6,158.6,128.3z"/>
							<path class="st6" d="M170.4,128.3v1.4c0,0.6-0.5,1.1-1.2,1.1h-11.7c0.7,0,1.2-0.5,1.2-1.1v-1.4c0-0.6-0.5-1.1-1.2-1.1h11.7
								C169.8,127.1,170.4,127.6,170.4,128.3z"/>
						</g>
					</g>
					<g>
						<path class="st4" d="M72.6,129.3c3.9,0.8,6.4,4.4,5.6,8.1c-0.8,3.7-4.6,6.1-8.5,5.3c-3.9-0.8-6.4-4.4-5.6-8.1
							C64.9,130.9,68.7,128.5,72.6,129.3 M72.9,127.6c-4.9-1-9.7,2-10.7,6.7c-1,4.7,2.1,9.2,7,10.2c4.9,1,9.7-2,10.7-6.7
							C80.9,133.1,77.8,128.6,72.9,127.6L72.9,127.6z"/>
					</g>
				</g>
				<g>
					<g>
						<g>
							<g>
								<path class="st5" d="M150.3,170.5v1.4c0,0.6-0.5,1.1-1.2,1.1H89.7c-0.7,0-1.2-0.5-1.2-1.1v-1.4c0-0.6,0.5-1.1,1.2-1.1h59.4
									C149.8,169.3,150.3,169.8,150.3,170.5z"/>
							</g>
							<g>
								<path class="st5" d="M170.4,170.5v1.4c0,0.6-0.5,1.1-1.2,1.1h-20.1c0.7,0,1.2-0.5,1.2-1.1v-1.4c0-0.6-0.5-1.1-1.2-1.1h20.1
									C169.8,169.3,170.4,169.8,170.4,170.5z"/>
							</g>
						</g>
						<g>
							<path class="st5" d="M141.4,177.7v1.4c0,0.6-0.5,1.1-1.2,1.1H89.7c-0.7,0-1.2-0.5-1.2-1.1v-1.4c0-0.6,0.5-1.1,1.2-1.1h50.5
								C140.9,176.6,141.4,177.1,141.4,177.7z"/>
							<path class="st6" d="M170.4,177.7v1.4c0,0.6-0.5,1.1-1.2,1.1h-29c0.7,0,1.2-0.5,1.2-1.1v-1.4c0-0.6-0.5-1.1-1.2-1.1h29
								C169.8,176.6,170.4,177.1,170.4,177.7z"/>
						</g>
						<g>
							<path class="st5" d="M158.6,163.6v1.4c0,0.6-0.5,1.1-1.2,1.1H89.7c-0.7,0-1.2-0.5-1.2-1.1v-1.4c0-0.6,0.5-1.1,1.2-1.1h67.7
								C158.1,162.5,158.6,163,158.6,163.6z"/>
							<path class="st6" d="M170.4,163.6v1.4c0,0.6-0.5,1.1-1.2,1.1h-11.7c0.7,0,1.2-0.5,1.2-1.1v-1.4c0-0.6-0.5-1.1-1.2-1.1h11.7
								C169.8,162.5,170.4,163,170.4,163.6z"/>
						</g>
					</g>
					<g>
						<path class="st4" d="M72.6,164.7c3.9,0.8,6.4,4.4,5.6,8.1c-0.8,3.7-4.6,6.1-8.5,5.3c-3.9-0.8-6.4-4.4-5.6-8.1
							C64.9,166.3,68.7,163.9,72.6,164.7 M72.9,162.9c-4.9-1-9.7,2-10.7,6.7c-1,4.7,2.1,9.2,7,10.2c4.9,1,9.7-2,10.7-6.7
							C80.9,168.5,77.8,163.9,72.9,162.9L72.9,162.9z"/>
					</g>
				</g>
			</g>
		</g>
		<g class="st7">
			<g class="st8">
				<g>
					<path class="st9" d="M200.7,182.7c0,1.3-6.6,2.3-14.8,2.3s-14.8-1-14.8-2.3c0-1.3,6.8-1.6,15-1.6
						C194.3,181.1,200.7,181.4,200.7,182.7z"/>
				</g>
			</g>
			<g class="st8">
				<g>
					<path class="st4" d="M213.2,121.6c0,0,0,0.1,0,0.4c-0.1,2.9-1.5,22.3-12.7,38.8c-12.1,17.9-5.7,24.7-5.7,24.7h-7.1
						c0,0,3.1-52.4,25.2-63.6C213,121.7,213.1,121.7,213.2,121.6z"/>
				</g>
			</g>
			<g class="st8">
				<g>
					<g>
						<path class="st9" d="M213.2,121.6c0,0,0,0.1,0,0.4c-1.2,1.9-8.6,14.2-15.2,29.9c-7.4,17.5-6,31.5-6,31.6
							c0,0.1-0.1,0.2-0.2,0.2h0c-0.1,0-0.2-0.1-0.2-0.2c0-0.1-1.4-14.2,6-31.8c6.7-15.7,14.1-28.1,15.2-30
							C213,121.7,213.1,121.7,213.2,121.6z"/>
					</g>
				</g>
			</g>
			<g class="st10">
				<g>
					<path d="M190.4,165.9l3.7,7.9c0,0-1.2,4.8-0.8,7c0.4,2.2,0.6,2.8,0.6,2.8h-2.1l-1.6-16.5L190.4,165.9z"/>
				</g>
			</g>
			<g class="st8">
				<g>
					<path class="st4" d="M187.6,185.4h-6.1c0,0-3.4-16.7-17.4-29.6c-0.2-0.2-0.2-0.4-0.2-0.6c0-0.1,0.1-0.2,0.2-0.3
						c0.2-0.2,0.4-0.3,0.7-0.3c3.3,0.6,10.2,3,17.5,12.1C192.4,179.4,187.6,185.4,187.6,185.4z"/>
				</g>
			</g>
			<g class="st8">
				<g>
					<path class="st4" d="M194,186.3h-5.9c0,0-1-2.8-5.9-19.6c-4.6-15.6,5.5-40.3,6.9-43.6v0c0.1-0.3,0.2-0.4,0.2-0.4
						c0.1,0,0.1-0.1,0.2-0.1c2.4-0.7,6.5,11.9,3.1,22.3C185.9,165.2,194,186.3,194,186.3z"/>
				</g>
			</g>
			<g class="st8">
				<g>
					<g>
						<path class="st9" d="M189.8,184.8c0,0.1,0,0.2-0.1,0.2c0,0,0,0-0.1,0c-0.1,0-0.1,0-0.2-0.1c-2.9-7.5-6-24.2-2.9-39.3
							c2.7-13.1,2.7-20.8,2.6-22.6v0c0.1-0.3,0.2-0.4,0.2-0.4c0.1,0,0.1-0.1,0.2-0.1c0,0,0,0,0,0.1c0,0.1,0.5,8.1-2.6,23
							C183.8,160.8,187,177.3,189.8,184.8z"/>
					</g>
				</g>
			</g>
			<g class="st8">
				<g>
					<g>
						<path class="st9" d="M185,184.3c0,0.1-0.1,0.2-0.2,0.2c0,0,0,0,0,0c-0.1,0-0.2-0.1-0.2-0.2c-1.6-18.1-19.9-28.7-20.7-29.1
							c0-0.1,0.1-0.2,0.2-0.3C164.7,155.2,183.3,165.8,185,184.3z"/>
					</g>
				</g>
			</g>
			<g class="st8">
				<g>
					<path class="st11" d="M197.7,212.6c0,0-3.4,1.2-11.8,1.1c-6.4-0.1-12.7-1.1-12.7-1.1l-2.1-30.1c0,0,4.3,1,15,1
						c11.4,0,14.6-1,14.6-1L197.7,212.6z"/>
				</g>
			</g>
		</g>
		<g class="st7">
			<path class="st12" d="M57,177.3l-25.2-0.3c-0.1,7.9,8.1,12.7,8,16.1c-0.1,3.8-8.3,6-8.5,15.9l25.2,0.3c0.1-9.8-8.1-12.3-8-16.1
				C48.5,189.7,56.9,185.1,57,177.3z"/>
			<path class="st13" d="M35.9,205.7c0.8-3,2.7-4.8,4.4-6.5c1.8-1.8,3.6-3.6,3.6-6.1c0-2.3-1.7-4.4-3.5-6.6c-1.5-1.9-3.2-3.9-4-6.3
				l15.7,0.2c-0.9,2.3-2.6,4.3-4.2,6.1c-1.9,2.2-3.6,4.2-3.6,6.5c0,2.5,1.7,4.4,3.5,6.2c1.6,1.7,3.5,3.6,4.2,6.6L35.9,205.7z"/>
			<path class="st14" d="M60.4,177.3l-32.2-0.4c-0.9,0-1.6-0.7-1.6-1.6v-0.4c0-0.9,0.7-1.6,1.6-1.6l32.2,0.4c0.9,0,1.6,0.7,1.6,1.6
				l0,0.4C62,176.6,61.3,177.3,60.4,177.3z"/>
			<path class="st14" d="M60,212.9l-32.2-0.4c-0.9,0-1.6-0.7-1.6-1.6l0-0.4c0-0.9,0.7-1.6,1.6-1.6l32.2,0.4c0.9,0,1.6,0.7,1.6,1.6
				l0,0.4C61.6,212.2,60.8,212.9,60,212.9z"/>
		</g>
	</g>
</g>
</svg>
